# AST/ASF file generated using VICON BodyLanguage
# -----------------------------------------------
:version 1.10
:name VICON
:units
  mass 1.0
  length 0.45
  angle deg
:documentation
   .ast/.asf automatically generated from VICON data using
   VICON BodyBuilder and BodyLanguage model FoxedUp or BRILLIANT.MOD
:root
   order TX TY TZ RX RY RZ
   axis XYZ
   position 0 0 0  
   orientation 0 0 0 
:bonedata
  begin
     id 1 
     name lhipjoint
     direction 0.577973 -0.728611 0.367523 
     length 2.48544 
     axis 0 0 0  XYZ
  end
  begin
     id 2 
     name lfemur
     direction 0.34202 -0.939693 0  
     length 7.1921  
     axis 0 0 20  XYZ
    dof rx ry rz
    limits (-160.0 20.0)
           (-70.0 70.0)
           (-60.0 70.0)
  end
  begin
     id 3 
     name ltibia
     direction 0.34202 -0.939693 0   
     length 7.71059   
     axis 0 0 20   XYZ
    dof rx
    limits (-10.0 170.0)
  end
  begin
     id 4 
     name lfoot
     direction 0.089538 -0.246004 0.965124   
     length 2.19909   
     axis -90 7.62852e-016 20   XYZ
    dof rx rz
    limits (-45.0 90.0)
           (-70.0 20.0)
  end
  begin
     id 5 
     name ltoes
     direction 1.53544e-011 -4.21829e-011 1   
     length 1.10116   
     axis -90 7.62852e-016 20   XYZ
    dof rx
    limits (-90.0 20.0)
  end
  begin
     id 6 
     name rhipjoint
     direction -0.554414 -0.743062 0.374812   
     length 2.4371  
     axis 0 0 0  XYZ 
  end
  begin
     id 7 
     name rfemur
     direction -0.34202 -0.939693 0   
     length 7.47254   
     axis 0 0 -20   XYZ
    dof rx ry rz
    limits (-160.0 20.0)
           (-70.0 70.0)
           (-70.0 60.0)
  end
  begin
     id 8 
     name rtibia
     direction -0.34202 -0.939693 0   
     length 7.65855   
     axis 0 0 -20   XYZ
    dof rx
    limits (-10.0 170.0)
 end
 begin
     id 9 
     name rfoot
     direction -0.133779 -0.367555 0.92033   
     length 2.43006  
     axis -90 -7.62852e-016 -20   XYZ
    dof rx rz
    limits (-45.0 90.0)
           (-20.0 70.0)
  end
  begin
     id 10 
     name rtoes
     direction -1.53563e-011 -4.21889e-011 1   
     length 1.19625   
     axis -90 -7.62852e-016 -20   XYZ
    dof rx
    limits (-90.0 20.0)
  end
  begin
     id 11 
     name lowerback
     direction 0.0249066 0.998043 -0.0573585   
     length 2.08485   
     axis 0 0 0   XYZ
    dof rx ry rz
    limits (-20.0 45.0)
           (-30.0 30.0)
           (-30.0 30.0)
  end
  begin
     id 12 
     name upperback
     direction 0.0237884 0.999673 0.00943178   
     length 2.08515   
     axis 0 0 0   XYZ
    dof rx ry rz
    limits (-20.0 45.0)
           (-30.0 30.0)
           (-30.0 30.0)
  end
  begin
     id 13 
     name thorax
     direction 0.0106671 0.999301 0.0358174   
     length 2.09037   
     axis 0 0 0   XYZ
    dof rx ry rz
    limits (-20.0 45.0)
           (-30.0 30.0)
           (-30.0 30.0)
  end
  begin
     id 14 
     name lowerneck
     direction -0.0580016 0.987052 0.149546   
     length 1.84454   
     axis 0 0 0   XYZ
    dof rx ry rz
    limits (-20.0 45.0)
           (-30.0 30.0)
           (-30.0 30.0)
  end
  begin
     id 15 
     name upperneck
     direction 0.079456 0.981963 -0.171567   
     length 1.88141   
     axis 0 0 0   XYZ
    dof rx ry rz
    limits (-20.0 45.0)
           (-30.0 30.0)
           (-30.0 30.0)
  end
  begin
     id 16
     name head
     direction 0.0262167 0.9967 -0.0768276  
     length 1.89541  
     axis 0 0 0   XYZ
    dof rx ry rz
    limits (-20.0 45.0)
           (-30.0 30.0)
           (-30.0 30.0)
  end
  begin
     id 17 
     name lclavicle
     direction 0.946135 0.322134 -0.0325326  
     length 3.949  
     axis 0 0 0   XYZ
    dof ry rz
    limits (-20.0 10.0)
           (0.0 20.0)
  end
  begin
     id 18 
     name lhumerus
     direction 1 -4.48964e-011 1.94005e-028   
     length 5.10995   
     axis 180 -30 -90   XYZ
    dof rx ry rz
    limits (-60.0 90.0)
           (-90.0 90.0)
           (-90.0 90.0)
  end
  begin
     id 19
     name lradius
     direction 1 -4.48976e-011 2.87852e-027   
     length 3.21207   
     axis 180 -30 -90   XYZ
    dof rx
    limits (-10.0 170.0)
  end
  begin
     id 20
     name lwrist
     direction 1 -4.48963e-011 1.9975e-027   
     length 1.60604   
     axis 2.96054e-016 90 90   XYZ
    dof ry
    limits (-180.0 0.0)
 end
  begin
     id 21 
     name lhand
     direction 1 -4.48919e-011 4.00227e-027   
     length 0.63349   
     axis -2.5488e-015 90 90   XYZ
    dof rx rz
    limits (-90.0 90.0)
           (-45.0 45.0)
  end
  begin
     id 22 
     name lfingers
     direction 1 -4.49037e-011 7.9652e-027   
     length 0.510736   
     axis -5.0975e-015 90 90   XYZ
    dof rx
    limits (0.0 90.0)
  end
  begin
     id 23
     name lthumb
     direction 0.707107 -6.34922e-011 0.707107   
     length 0.733318   
     axis -90 45 -4.48553e-014   XYZ
    dof rx rz
    limits (-45.0 45.0)
           (-45.0 45.0)
  end
  begin
     id 24 
     name rclavicle
     direction -0.940085 0.328911 -0.0897654   
     length 3.93848  
     axis 0 0 0   XYZ 
    dof ry rz
    limits (-10.0 20.0)
           (-20.0 0.0)
  end
  begin
     id 25 
     name rhumerus
     direction -1 -4.48958e-011 3.02044e-027  
     length 5.25109   
     axis 180 30 90   XYZ
    dof rx ry rz
    limits (-90.0 60.0)
           (-90.0 90.0)
           (-90.0 90.0)
  end
  begin
     id 26 
     name rradius
     direction -1 -4.4897e-011 9.78352e-028   
     length 3.28364   
     axis 180 30 90   XYZ
    dof rx
    limits (-10.0 170.0)
  end
  begin
     id 27 
     name rwrist
     direction -1 -4.48943e-011 1.99918e-027   
     length 1.64182   
     axis 2.96054e-016 -90 -90   XYZ
    dof ry
    limits (-180.0 0.0)
  end
  begin
     id 28
     name rhand
     direction -1 -4.49024e-011 3.98478e-027   
     length 0.599745   
     axis -2.5488e-015 -90 -90   XYZ
    dof rx rz
    limits (-90.0 90.0)
           (-45.0 45.0)
  end
  begin
     id 29
     name rfingers
     direction -1 -4.48914e-011 8.00621e-027   
     length 0.48353   
     axis -5.0975e-015 -90 -90   XYZ
    dof rx
    limits (0.0 90.0)
  end
  begin
     id 30
     name rthumb
     direction -0.707107 -6.34992e-011 0.707107   
     length 0.694255   
     axis -90 -45 4.48553e-014   XYZ
    dof rx rz
    limits (-45.0 45.0)
           (-45.0 45.0)
  end
:hierarchy
  begin
    root lhipjoint rhipjoint lowerback
    lhipjoint lfemur
    lfemur ltibia
    ltibia lfoot
    lfoot ltoes
    rhipjoint rfemur
    rfemur rtibia
    rtibia rfoot
    rfoot rtoes
    lowerback upperback
    upperback thorax
    thorax lowerneck lclavicle rclavicle
    lowerneck upperneck
    upperneck head
    lclavicle lhumerus
    lhumerus lradius
    lradius lwrist
    lwrist lhand lthumb
    lhand lfingers
    rclavicle rhumerus
    rhumerus rradius
    rradius rwrist
    rwrist rhand rthumb
    rhand rfingers
  end

#!OML:ASF E:\CV Data\Top Level 1\Subject 1\Session 1\player.ASF
:FULLY-SPECIFIED
:DEGREES
1
root 4.07134 17.3592 -29.2776 9.23763 -10.3712 -8.98523
lowerback -1.52666 0.982312 3.14885
upperback -1.63716 1.29632 3.42849
thorax -0.834183 0.633945 1.76347
lowerneck -17.8151 -11.4311 -15.6741
upperneck 15.4433 -15.246 16.9473
head 10.5001 -6.43682 6.14689
rclavicle 4.15584e-015 5.95857e-014
rhumerus -42.0739 19.3601 -98.5874
rradius 76.5045
rwrist -73.6635
rhand -4.45209 -12.9807
rfingers 7.12502
rthumb 21.3198 -41.828
lclavicle 4.15584e-015 5.95857e-014
lhumerus -41.1829 -29.0914 105.211
lradius 88.9982
lwrist 36.8881
lhand -25.5224 36.4347
lfingers 7.12502
lthumb 1.00702 66.4121
rfemur -25.4823 6.92717 24.3271
rtibia 37.2631
rfoot -17.5298 -9.53756
rtoes 2.81054
lfemur -23.0796 3.76993 -13.1848
ltibia 39.4591
lfoot -18.6097 8.59797
ltoes 3.2933
2
root 4.08389 17.358 -29.261 9.09378 -10.3829 -8.88014
lowerback -1.6683 1.00491 3.24865
upperback -1.40624 1.30621 3.38206
thorax -0.514328 0.641117 1.66482
lowerneck -17.9907 -11.6857 -15.9809
upperneck 15.3885 -15.5552 17.2049
head 10.624 -6.56286 6.22134
rclavicle 6.63133e-016 2.30342e-014
rhumerus -41.7544 19.2131 -98.3076
rradius 76.522
rwrist -73.5924
rhand -4.59006 -13.114
rfingers 7.12502
rthumb 21.1872 -41.9762
lclavicle 6.63133e-016 2.30342e-014
lhumerus -40.9245 -29.2409 105.269
lradius 88.9178
lwrist 36.9942
lhand -25.7427 36.0592
lfingers 7.12502
lthumb 0.794274 66.0375
rfemur -25.2777 6.62554 24.1911
rtibia 37.283
rfoot -17.6634 -9.2567
rtoes 2.88078
lfemur -22.6976 3.76661 -13.3697
ltibia 39.2382
lfoot -18.6406 8.63933
ltoes 3.04088
3
root 4.09701 17.3613 -29.2441 8.9446 -10.3989 -8.77882
lowerback -1.84234 0.862452 3.25817
upperback -1.35941 1.10356 3.33813
thorax -0.366503 0.540794 1.61494
lowerneck -17.4155 -11.5699 -15.8118
upperneck 15.0253 -15.4479 17.1411
head 10.3475 -6.54938 6.20338
rclavicle -5.71195e-015 4.17448e-014
rhumerus -41.9517 19.4153 -98.5182
rradius 76.6412
rwrist -73.5772
rhand -4.85675 -13.2458
rfingers 7.12502
rthumb 20.931 -42.1365
lclavicle -5.71195e-015 4.17448e-014
lhumerus -41.0233 -28.9082 105.188
lradius 88.8662
lwrist 37.0974
lhand -25.4462 36.5054
lfingers 7.12502
lthumb 1.08061 66.4824
rfemur -24.9888 6.29837 24.0629
rtibia 37.1988
rfoot -17.7398 -8.95659
rtoes 2.79353
lfemur -22.3861 3.75714 -13.5528
ltibia 39.0904
lfoot -18.6791 8.66568
ltoes 3.19127
4
root 4.108 17.3683 -29.229 8.84071 -10.5591 -8.69804
lowerback -1.9221 0.895021 3.27782
upperback -1.17816 1.1336 3.30323
thorax -0.134696 0.55826 1.57153
lowerneck -17.5723 -11.7992 -15.9612
upperneck 14.9403 -15.7388 17.3034
head 10.4305 -6.66876 6.22019
rclavicle -3.23429e-014 -9.93923e-015
rhumerus -41.6968 19.297 -98.3409
rradius 76.5904
rwrist -73.4626
rhand -4.6706 -13.1495
rfingers 7.12502
rthumb 21.1099 -42.0203
lclavicle -3.23429e-014 -9.93923e-015
lhumerus -40.8733 -28.9318 105.227
lradius 88.8372
lwrist 37.1311
lhand -25.4371 36.6918
lfingers 7.12502
lthumb 1.08942 66.6687
rfemur -24.7701 6.09574 23.9366
rtibia 37.1237
rfoot -17.7956 -8.62772
rtoes 2.81479
lfemur -22.1275 3.86125 -13.7231
ltibia 38.9562
lfoot -18.6992 8.69592
ltoes 3.33409
5
root 4.11967 17.3715 -29.215 8.73866 -10.6571 -8.63183
lowerback -2.0384 0.87079 3.32385
upperback -1.05675 1.08807 3.27174
thorax 0.0567572 0.537307 1.51565
lowerneck -17.4177 -11.9214 -16.0587
upperneck 14.7409 -15.9117 17.4367
head 10.3868 -6.75385 6.25019
rclavicle 2.56789e-014 4.44035e-014
rhumerus -41.6187 19.2758 -98.2921
rradius 76.5986
rwrist -73.3769
rhand -4.67075 -13.1538
rfingers 7.12502
rthumb 21.1097 -42.0247
lclavicle 2.56789e-014 4.44035e-014
lhumerus -40.8343 -28.8395 105.251
lradius 88.8104
lwrist 37.1676
lhand -25.4934 36.6985
lfingers 7.12502
lthumb 1.03503 66.6757
rfemur -24.5413 5.85774 23.828
rtibia 37.0348
rfoot -17.8571 -8.31025
rtoes 2.87063
lfemur -21.8868 3.91659 -13.8723
ltibia 38.859
lfoot -18.7407 8.74163
ltoes 3.40764
